<svg xmlns="http://www.w3.org/2000/svg" viewBox="0 0 1024 1024"><defs><linearGradient id="a" x1="10.4" x2="1004.6" y1="511.5" y2="511.5" gradientUnits="userSpaceOnUse"><stop offset="0" stop-color="#6cb5e4"/><stop offset="0" stop-color="#62b0e1"/><stop offset="0" stop-color="#49a2d9"/><stop offset="0" stop-color="#208ccc"/><stop offset="0" stop-color="#007cc2"/><stop offset="1" stop-color="#0059a9"/></linearGradient></defs><ellipse cx="507.5" cy="511.5" fill="url(#a)" rx="497.1" ry="499.9"/><path d="M531 0a512 512 0 0 1 491 473l1 10c0 5-1 21 1 20v30c-1-1-1 12-1 17a513 513 0 0 1-473 473l-20 1h-37c1-1-13-1-19-1A508 508 0 0 1 2 555l-2-22v-52q9-124 71-230A513 513 0 0 1 474 1l19-1zm446 512a465 465 0 1 0-930 0 465 465 0 0 0 930 0"/><path d="M967 512a455 455 0 1 1-910 0 455 455 0 0 1 910 0M423 635l14 20q6 8 15 8h64q6 0 9-4 4-5 0-9l-31-44-47-66-1-4 2-3a126 126 0 0 0-38-243H262q-9 0-11 9v344l1 13q1 7 7 7h59q9-2 9-11l-1-104q1-5 6-6h21q6 1 8 6l18 25zm197-83q1-4 4-6h78q54-2 90-42c45-50 43-128-4-176-23-22-53-38-86-38H554q-7 1-9 8v357c0 4 6 8 9 8h49c8 0 17 0 17-9zM195 789l8-23 7 1c10 3 20-5 24-15q3-9-3-18l-19-23-48 36 8 12 15-12 6 8-8 21zm648-15 8-11-38-31 11-14-10-7-31 40 10 7 12-14zm-29 30q5-13-5-22c-15-13-33 12-40 5s10-16 18-16l-3-12q-19 2-28 18-4 9 2 19c15 20 37-10 43-1 6 8-12 18-21 18l2 12q22-1 32-21m-575 28 12 9 23-61-12-10-59 28 12 11 10-6 18 17zm500-41-12 8 37 50 12-9zm-410 64c8-14 5-31-8-40l-24-16-33 52 22 14c14 9 33 5 42-10m417-8-25 15-24-41-12 7 31 52 37-22zm-85 35 8 20 13-6-8-19 6-46-14 6-4 29-22-18-15 6zm-309-50-26 56 14 6 26-56zm74 50a32 32 0 1 0-65 0 32 32 0 0 0 65 0m194 23 7 11 14-4-37-54-15 3-10 65 14-3 2-12zm-113 3c9-9 10-25 1-33s-11-6-17-6l-24-2-5 61 14 1 2-16c7-2 20 3 29-5m62 8-29 1-3-48-14 1 4 61 43-3z"/><path d="m430 635-63-89q-6-9-17-10h-19q-11 3-11 15v102q0 5-5 5h-55l-3-5-1-19 1-234V300q1-3 4-4h150a121 121 0 0 1 39 230c-41 19-7 5-10 9s0 6 2 8l45 65 32 44 1 3-4 2h-70zm-46-116 12 17 12 17 43 63q-5 8 1 16c6 8 9 6 14 3q10-6 6-16c-4-10-9-9-16-6l-23-33-16-22-17-25-12-17 4-9q24 3 47-7c31-14 51-43 53-78 3-49-33-96-83-97H301q-4-10-14-10-10 1-11 11c-1 10 2 11 9 14v78l1 6v187q-11 3-10 14c1 11 6 10 12 10s12-5 12-10q2-11-9-14V350l1-10q6-2 9-9l107 1c44 0 77 40 78 84a85 85 0 0 1-96 85q-5-9-15-7-9 2-9 13c0 11 4 10 10 11zm25-47q12-1 20-6 32-20 29-56c-3-27-24-50-52-50h-73q-6 0-9 3-4 5-3 9v87c0 6 2 13 9 13zm219 69c-5 0-13 2-13 9v103q0 3-4 4h-56q-4-1-5-4V310c0-5 0-14 5-14h145q43 2 76 30 38 34 42 85c5 69-50 127-109 129h-29zm-43-20q8-3 10-10h101q19 1 35-5c38-15 60-52 58-92-1-34-20-64-50-79s-21-10-33-10H595q-3-10-13-10c-10 0-10 3-12 8s2 14 10 17v157q-14 5-9 18c5 13 6 5 9 7v88q-11 5-10 14 2 12 12 11 14-2 12-10c-2-8-2-12-9-14zM411 887q-5 13-18 14-13-1-17-15c-4-14 1-14 7-19s14-6 21-2 9 13 7 22m-97-37c-10 11-21 6-31-2l20-31 13 10q7 12-2 23m-93-107q0 5-4 9-5 5-9 1-6-5-11-13l14-11zm28 65-13-11 21-11zm364 87-16 3 3-23zm-124 6-10-1 1-20 13 2q8 3 7 11-1 11-12 8"/><path d="M398 466h-66q-4 0-5-4v-91q1-5 5-5l78 1c19 0 34 18 40 34s-1 41-16 54-22 11-36 11m365 9a77 77 0 0 1-55 30l-114 1q-1-8-9-9V340l10-9 107 1c45 0 86 43 81 96q-2 26-20 47m-56 1c30-4 48-29 48-57 0-30-20-55-50-59h-78c-5 0-12 3-12 9v99q2 6 8 8z"/><path d="M706 471h-82q-3-1-4-6v-92c0-2 2-7 4-7l82 1c21 0 38 20 42 41 4 23-6 46-26 57q-8 5-17 6Z"/></svg>